<svg version="1.1" xmlns="http://www.w3.org/2000/svg"  x="0px" y="0px" viewBox="0 0 899 453">
<path fill="#2F3439" opacity="1.000000" stroke="none"
	d="
M172.782410,280.096069
	C170.008423,271.572083 172.299362,263.836731 174.918243,256.294037
	C178.290482,246.581573 182.170029,237.045242 186.270416,226.279510
	C179.183472,226.279510 172.600800,226.387863 166.022598,226.261703
	C126.868721,225.510895 87.714615,224.760040 48.564377,223.846878
	C43.949326,223.739243 39.225414,223.123505 34.780304,221.908157
	C23.048546,218.700546 17.973875,210.834732 20.338068,198.941879
	C23.463171,183.221313 23.561272,167.755188 20.877054,151.851608
	C19.750393,145.176300 22.436371,137.453918 24.808802,130.706757
	C27.115793,124.145683 33.622932,124.700554 39.409451,125.165283
	C43.543217,125.497269 47.678944,126.093666 51.813236,126.088844
	C272.459320,125.831612 493.105316,125.466377 713.751465,125.264565
	C761.078613,125.221275 808.406189,125.794281 855.734009,125.971062
	C863.443604,125.999870 868.121033,129.897751 871.161987,136.496063
	C875.454895,145.811081 876.491455,155.787827 876.237793,165.793259
	C875.914185,178.558655 875.922119,191.505951 873.697632,204.002914
	C871.265137,217.669556 862.821411,223.423813 848.811462,223.894791
	C808.676147,225.243973 768.544861,227.291489 728.399292,227.651001
	C609.088867,228.719467 489.772705,229.468399 370.457947,229.603928
	C316.306732,229.665436 262.153656,227.980652 208.001129,227.105713
	C203.510361,227.033157 199.017395,227.096130 193.392914,227.096130
	C188.153412,241.963837 182.559937,257.051971 177.576828,272.339050
	C175.401932,279.011139 177.280518,281.353607 184.175980,280.119965
	C194.505051,278.272125 204.670074,275.409058 214.812454,272.639343
	C229.660095,268.584686 243.838913,271.111298 258.159851,275.598328
	C267.963104,278.669952 278.192200,280.382599 288.615326,282.791626
	C289.182434,279.790100 289.773163,276.663422 290.385010,273.425018
	C290.932556,273.425018 291.699158,273.231201 291.848480,273.453003
	C297.654205,282.075226 308.188416,283.963623 315.594757,290.256683
	C316.466553,290.997437 317.164551,292.856750 316.848389,293.848511
	C316.459442,295.068512 315.048584,296.575684 313.855103,296.808441
	C310.610413,297.441193 307.187714,297.164032 303.944977,297.802856
	C298.641998,298.847534 293.432373,300.360138 288.167664,301.609192
	C286.996674,301.886993 285.760437,301.889862 284.583191,302.016205
	C284.849396,299.563690 284.706818,297.562561 285.390503,295.901520
	C285.762482,294.997833 287.488831,294.324066 288.690216,294.154205
	C291.652374,293.735352 294.664185,293.667419 297.656006,293.458374
	C297.693573,292.871277 297.731140,292.284180 297.768707,291.697083
	C291.527557,290.335541 285.311737,288.841827 279.040192,287.638733
	C264.017487,284.756958 249.028183,281.616730 233.911560,279.335175
	C221.574234,277.473145 209.364700,279.222229 197.483017,283.174561
	C192.604553,284.797333 187.659149,286.335846 182.631989,287.364044
	C176.800964,288.556671 174.112122,286.438629 172.782410,280.096069
M812.995667,180.496582
	C812.995667,170.231537 812.995667,159.966476 812.995667,149.597351
	C810.352417,149.597351 808.290527,149.597351 805.673828,149.597351
	C805.673828,154.952957 805.673828,159.992050 805.673828,165.330841
	C794.245911,158.644547 785.028931,163.435791 783.864929,176.140625
	C783.624390,178.766663 783.755066,181.445892 783.928162,184.086594
	C784.265198,189.228149 786.330994,193.557236 791.228699,195.648697
	C796.294067,197.811737 801.270203,197.340317 805.605164,193.241562
	C806.745361,198.430832 810.103333,195.609085 812.995667,195.864349
	C812.995667,190.775864 812.995667,186.135452 812.995667,180.496582
M836.339783,189.805267
	C833.187927,188.495560 829.968628,187.251938 829.446655,182.932861
	C833.064514,182.932861 836.383240,182.932861 839.701965,182.932861
	C843.153259,182.932861 846.604492,182.932861 850.926453,182.932861
	C850.643555,179.387650 850.536926,176.318253 850.127930,173.289688
	C849.291992,167.099411 845.564758,163.498703 839.517456,162.469864
	C833.562805,161.456802 828.072876,162.677567 824.557129,167.947754
	C820.375610,174.215744 820.526550,181.224518 823.153503,187.959351
	C825.713379,194.522186 831.653931,196.467926 838.071167,196.754288
	C841.634460,196.913300 845.233093,196.279709 849.298584,195.966095
	C848.823608,193.391464 848.455505,191.396439 848.186951,189.940918
	C844.065796,189.940918 840.614380,189.940918 836.339783,189.805267
M556.862854,173.191299
	C555.556458,168.285751 553.229736,164.378784 547.865784,162.914597
	C538.410095,160.333481 531.136841,164.265091 528.693970,173.473587
	C525.759460,184.535141 530.297791,194.252396 539.841370,195.884445
	C544.905151,196.750412 550.238953,196.037827 555.706177,196.037827
	C555.286194,193.428680 554.978333,191.516266 554.673706,189.623917
	C542.874756,190.786560 537.293579,189.751648 536.260681,182.793945
	C543.078125,182.793945 549.845764,182.793945 556.966614,182.793945
	C556.966614,179.627228 556.966614,176.836655 556.862854,173.191299
M221.566299,196.275131
	C224.329102,196.275131 227.091888,196.275131 229.733322,196.275131
	C229.733322,193.694427 229.733322,192.063004 229.733322,190.480103
	C227.812088,189.972336 226.098083,189.519333 225.409698,189.337402
	C224.142075,181.672516 224.642838,173.820496 221.429626,168.029068
	C217.426086,160.813171 208.563599,162.997849 201.232819,162.638977
	C200.981400,164.904724 200.770828,166.802353 200.583618,168.489426
	C206.409332,170.621719 214.472107,166.759247 217.487930,175.980774
	C209.349014,176.236313 200.988312,174.433716 197.236862,183.262802
	C195.569427,187.187164 196.027252,191.902725 200.137421,194.414825
	C202.668533,195.961823 206.128464,196.774673 209.095764,196.603912
	C212.125946,196.429520 215.063721,194.649353 217.555527,193.748108
	C218.572662,194.557465 219.680923,195.439331 221.566299,196.275131
M628.489624,196.136917
	C629.957336,196.031952 631.425049,195.926987 632.965576,195.816803
	C632.965576,193.821671 632.965576,192.070374 632.965576,190.391830
	C631.172424,189.920715 629.631470,189.515869 627.936096,189.070435
	C627.936096,184.610947 628.031860,180.450485 627.915588,176.295975
	C627.695740,168.443253 623.646240,164.021271 615.834900,163.040298
	C613.856079,162.791779 611.845032,162.778961 609.846985,162.709259
	C603.920776,162.502457 603.920410,162.512482 604.424500,168.603729
	C609.996277,170.645218 618.233215,166.619415 621.006531,176.030396
	C617.862366,176.030396 615.174805,175.760910 612.568726,176.106384
	C609.977539,176.449875 607.307251,177.070786 604.960388,178.180740
	C601.295654,179.913971 599.852966,183.257538 600.028870,187.235703
	C600.195618,191.006607 601.760071,193.943771 605.388367,195.518616
	C611.358337,198.109863 617.148804,196.880325 621.754456,191.824524
	C621.946350,193.381866 622.112061,194.726471 622.290466,196.174332
	C624.250793,196.174332 625.898560,196.174332 628.489624,196.136917
M777.041626,178.593750
	C776.834290,169.672562 773.618530,164.661392 766.939331,162.851013
	C758.812378,160.648254 751.710815,164.043304 749.148438,171.356400
	C745.714172,181.157394 748.954956,192.391724 756.131409,195.536850
	C756.582153,195.734406 757.065918,195.859116 757.538513,196.004028
	C768.947327,199.502335 776.782776,192.879364 777.041626,178.593750
M715.932983,191.588821
	C724.000366,198.506149 732.925781,197.482224 742.373901,194.626465
	C742.191406,193.266022 742.125122,192.122482 741.861511,191.026382
	C741.676575,190.257339 741.222778,189.552979 740.789124,188.600067
	C740.045959,188.730331 739.419495,188.802460 738.812134,188.952148
	C724.614380,192.451065 717.665039,187.007401 717.872559,172.661499
	C717.954651,166.988434 719.542175,162.073105 724.730957,159.197647
	C729.939392,156.311295 734.557617,158.095184 738.214844,161.794647
	C740.139587,160.234360 741.790588,158.895996 743.354614,157.628143
	C736.503052,147.790024 718.594604,149.460907 713.317322,160.423401
	C708.356689,170.728119 708.502686,181.277390 715.932983,191.588821
M475.000000,170.558563
	C474.987610,174.382065 475.117767,178.212662 474.928070,182.027344
	C474.669434,187.226730 471.926361,190.277786 467.928833,189.954742
	C462.773590,189.538162 462.808044,185.742432 462.838104,181.927933
	C462.887207,175.693573 462.851318,169.458511 462.851318,163.187744
	C459.892975,163.187744 457.780670,163.187744 455.599457,163.187744
	C455.599457,171.142410 455.447296,178.900177 455.658173,186.648087
	C455.779022,191.088470 457.761383,194.566818 462.369812,196.018051
	C467.250824,197.555115 471.426849,196.689804 474.522614,192.582199
	C477.147034,199.625031 482.612335,194.594833 486.731750,196.339539
	C486.731750,193.837509 486.731750,192.086533 486.731750,190.117691
	C482.545807,190.377426 482.117218,188.003708 482.214661,184.698807
	C482.423767,177.605453 482.278778,170.501663 482.278778,163.318115
	C479.602722,163.318115 477.404510,163.318115 475.000000,163.318115
	C475.000000,165.624680 475.000000,167.603333 475.000000,170.558563
M360.680267,189.432892
	C354.694031,190.484268 352.617554,188.994034 352.455780,183.015564
	C352.277557,176.430893 352.415131,169.837662 352.415131,163.220001
	C349.596375,163.220001 347.502411,163.220001 345.028656,163.220001
	C345.028656,170.231506 344.962738,177.024979 345.050964,183.816437
	C345.113556,188.635330 345.957275,193.359390 350.921448,195.554260
	C356.066071,197.828903 360.910950,197.177826 364.592163,192.081879
	C365.654053,196.956589 367.852600,197.484589 376.384003,195.373550
	C378.013519,191.237610 375.638702,189.690384 371.779236,189.022690
	C371.779236,180.256073 371.779236,171.674164 371.779236,163.332718
	C369.245697,163.332718 367.176086,163.332718 364.920166,163.332718
	C364.920166,168.816147 365.350250,174.012054 364.769257,179.092346
	C364.380646,182.490540 362.555206,185.724426 360.680267,189.432892
M79.096252,192.624939
	C78.128624,191.529037 77.321075,189.759415 76.158676,189.483231
	C74.010147,188.972717 71.653709,189.337219 69.394775,189.337219
	C69.394775,178.821121 69.394775,168.811935 69.394775,158.487244
	C72.730789,158.487244 75.683571,158.487244 78.862579,158.487244
	C78.862579,156.256607 78.862579,154.345047 78.862579,152.292191
	C69.860039,152.292191 60.982311,152.292191 51.911732,152.292191
	C52.029400,154.520309 52.130161,156.428253 52.246883,158.638458
	C55.636482,158.638458 58.581635,158.638458 61.729156,158.638458
	C61.729156,169.025482 61.729156,179.077682 61.729156,189.602753
	C58.363476,189.602753 55.287273,189.602753 52.299187,189.602753
	C52.299187,191.981201 52.299187,193.880478 52.299187,196.011398
	C60.569073,196.011398 68.532326,196.088577 76.489449,195.903091
	C77.375626,195.882446 78.226952,194.367401 79.096252,192.624939
M657.586609,184.234604
	C659.160400,187.857239 658.138672,189.552185 653.492554,189.874725
	C648.915405,190.192505 644.298889,189.944077 639.183472,189.944077
	C639.080566,191.420517 638.937073,193.478775 638.767395,195.912506
	C645.756592,195.912506 652.345337,196.334763 658.849182,195.773788
	C663.715027,195.354065 666.404663,191.721069 666.560669,186.845139
	C666.700867,182.462326 664.681213,179.207047 660.234131,177.881149
	C657.070312,176.937836 653.844482,176.172867 650.746094,175.052444
	C649.366882,174.553696 648.233154,173.375763 646.988037,172.506088
	C648.307983,171.476807 649.564331,169.674774 650.959473,169.560028
	C655.543030,169.183060 660.177002,169.418274 664.817566,169.418274
	C665.227112,167.033173 665.527466,165.283981 665.855103,163.375778
	C658.670837,161.651642 651.831421,161.627289 645.043457,163.891785
	C640.801880,165.306778 639.197449,168.622849 639.076843,172.736328
	C638.959534,176.735809 641.212158,179.295288 644.872620,180.497162
	C648.792114,181.784088 652.793030,182.822968 657.586609,184.234604
M235.760391,173.326324
	C235.760910,176.985519 237.742371,179.215195 241.041183,180.318497
	C244.014343,181.312866 247.155777,181.866776 250.028336,183.076965
	C251.890915,183.861664 253.403885,185.476151 255.073517,186.718826
	C253.217773,187.802841 251.416016,189.680008 249.495392,189.810715
	C245.087494,190.110718 240.621674,189.559372 235.922562,189.341721
	C235.612579,191.435501 235.309860,193.480270 234.947113,195.930450
	C242.111176,195.930450 248.722122,196.373596 255.237762,195.776642
	C259.676880,195.369919 262.663300,192.363297 263.010162,187.425110
	C263.347626,182.620300 261.397736,179.387924 256.780823,177.914841
	C253.951767,177.012207 251.053452,176.323532 248.236176,175.388336
	C246.473312,174.803177 244.803284,173.938385 242.529510,172.956299
	C248.391495,166.287033 255.775192,170.577454 261.752777,168.544281
	C261.752777,166.592651 261.752777,164.826691 261.752777,162.218414
	C255.853516,162.484390 250.216446,162.432266 244.659256,163.072952
	C238.793854,163.749161 236.503693,166.507645 235.760391,173.326324
M127.409843,176.283569
	C129.016632,176.366714 130.623413,176.449844 132.725616,176.558609
	C132.725616,183.140091 132.725616,189.375046 132.725616,195.648819
	C135.449844,195.648819 137.637589,195.648819 140.235748,195.648819
	C140.235748,189.059067 140.235748,182.825943 140.235748,176.086502
	C144.715775,176.086502 148.782211,176.086502 153.119919,176.086502
	C153.011734,173.815750 152.929138,172.082367 152.826813,169.934631
	C148.360611,169.934631 144.280212,169.934631 140.250031,169.934631
	C139.440598,157.892761 140.970154,156.393311 154.789536,155.523346
	C154.998276,153.680939 155.213486,151.781357 155.421844,149.942169
	C140.570969,145.858795 134.908295,150.754730 132.172104,170.074203
	C130.306656,170.074203 128.358322,170.142776 126.416824,170.056671
	C124.041687,169.951340 122.256538,170.090561 122.174873,173.320206
	C122.082321,176.980865 124.472771,176.186737 127.409843,176.283569
M319.962616,165.083527
	C319.279694,164.386078 318.631531,163.131241 317.907928,163.086121
	C314.491486,162.873093 311.054382,162.991150 307.282562,162.991150
	C307.479584,165.392197 307.620789,167.113113 307.755493,168.754745
	C309.900604,168.974777 311.497498,169.138565 313.016815,169.294403
	C313.016815,176.331940 313.016815,183.040970 313.016815,189.786057
	C310.582306,189.958862 308.489563,190.107407 306.467773,190.250900
	C306.467773,192.308090 306.467773,194.021912 306.467773,195.726807
	C314.078400,195.726807 321.325073,195.726807 328.598633,195.726807
	C328.598633,193.702805 328.598633,191.983505 328.598633,190.150040
	C325.882477,190.012344 323.481842,189.890656 320.686035,189.748917
	C320.990662,184.817047 320.932556,180.313644 321.646667,175.936234
	C322.207062,172.501099 323.613373,168.471603 328.034454,169.153458
	C330.189026,169.485764 331.947113,172.388885 333.884674,174.128296
	C333.663788,174.383560 333.442902,174.638840 333.222046,174.894104
	C335.328583,174.894104 337.435150,174.894104 339.512787,174.894104
	C340.094421,168.738892 338.495270,164.864838 334.821228,163.208221
	C329.981415,161.025986 326.258209,162.047516 321.681213,166.691467
	C321.538208,166.836563 320.578949,166.177170 319.962616,165.083527
M93.405380,196.001587
	C94.270813,194.844421 95.816414,193.725311 95.883675,192.523483
	C96.171234,187.384750 95.857536,182.214493 96.079704,177.069397
	C96.300194,171.963409 99.081505,168.894257 103.106125,169.035538
	C108.596207,169.228271 108.642670,173.401871 108.719238,177.275528
	C108.839867,183.377869 108.751320,189.484344 108.751320,195.645996
	C111.414459,195.645996 113.605881,195.645996 115.987686,195.645996
	C115.987686,188.653702 116.029663,182.016602 115.973671,175.380310
	C115.933006,170.561752 115.168686,165.850235 110.249306,163.573715
	C105.255913,161.262970 100.336380,161.539932 97.559616,164.519501
	C94.065475,163.745590 91.682602,163.217804 88.848244,162.590027
	C88.848244,173.459442 88.967133,183.256332 88.778450,193.047287
	C88.719009,196.131653 90.298576,196.188370 93.405380,196.001587
M294.387939,169.004013
	C295.838165,168.933273 297.288361,168.862549 298.737122,168.791885
	C298.737122,166.757294 298.737122,165.026779 298.737122,162.902344
	C293.895264,162.902344 289.307007,162.902344 284.200317,162.902344
	C284.200317,159.457184 284.200317,156.401138 284.200317,153.275299
	C281.582642,153.275299 279.507660,153.275299 276.958130,153.275299
	C276.958130,156.574707 276.958130,159.651016 276.958130,162.819153
	C274.070709,162.962280 271.652344,163.082153 268.966095,163.215317
	C269.057312,165.271530 269.134125,167.003342 269.215057,168.827713
	C272.019135,168.975128 274.420319,169.101349 277.011566,169.237564
	C277.011566,173.615829 277.005402,177.588394 277.012726,181.560928
	C277.034149,193.203323 281.015564,197.124008 292.688477,196.805481
	C295.107544,196.739487 297.514191,196.218079 300.166229,195.875610
	C299.982697,193.543152 299.836060,191.679520 299.703766,189.998260
	C296.904999,189.998260 294.764679,190.014984 292.624695,189.995026
	C286.909576,189.941696 284.884216,188.420670 284.464081,182.955307
	C284.113525,178.394943 284.392181,173.786194 284.392181,169.004028
	C287.790314,169.004028 290.610382,169.004028 294.387939,169.004013
M430.312347,195.537872
	C435.774811,195.966400 441.237274,196.394943 447.382538,196.877029
	C446.828888,193.481857 446.526001,191.624329 446.258789,189.985718
	C442.999054,189.985718 440.356232,190.055359 437.718567,189.968323
	C434.325867,189.856369 431.684967,188.224670 431.439636,184.776642
	C431.068909,179.566833 431.342896,174.311142 431.342896,168.786041
	C436.375977,168.786041 440.996704,168.786041 445.665588,168.786041
	C445.665588,166.743225 445.665588,165.019516 445.665588,162.831696
	C440.649384,162.831696 435.908295,162.831696 430.738403,162.831696
	C430.738403,159.276047 430.738403,156.197205 430.738403,153.394958
	C428.207703,153.394958 426.132416,153.394958 423.767395,153.394958
	C423.767395,156.709702 423.767395,159.656982 423.767395,163.004730
	C421.040466,163.004730 418.614410,163.004730 416.062317,163.004730
	C416.062317,165.145752 416.062317,166.873306 416.062317,169.052414
	C418.746552,169.052414 421.156036,169.052414 423.989716,169.052414
	C423.989716,174.795837 423.967865,180.093414 423.996552,185.390701
	C424.019836,189.696030 425.500549,193.189285 430.312347,195.537872
M514.974854,162.457092
	C510.209045,161.519531 506.747314,163.588898 503.837189,168.070282
	C503.237671,165.874985 502.842041,164.426376 502.513000,163.221512
	C498.457672,163.221512 494.833954,163.221512 491.167297,163.221512
	C491.167297,165.190231 491.167297,166.927353 491.167297,168.774124
	C493.170288,168.958237 494.903961,169.117584 496.513367,169.265503
	C496.513367,176.389206 496.513367,183.107330 496.513367,189.835709
	C494.052094,189.972824 491.948212,190.090012 489.835571,190.207703
	C489.835571,192.296280 489.835571,194.034866 489.835571,195.644470
	C497.429840,195.644470 504.660675,195.644470 511.799316,195.644470
	C511.799316,193.663544 511.799316,192.045151 511.799316,189.992706
	C509.198853,189.992706 506.790070,189.992706 503.708954,189.992706
	C504.088379,185.094910 504.183197,180.636108 504.851959,176.265106
	C505.384125,172.787064 506.611969,168.714966 510.954376,169.168961
	C513.231201,169.406998 515.225403,172.348724 517.347229,174.069458
	C517.126099,174.305771 516.904968,174.542068 516.683838,174.778381
	C518.760742,174.778381 520.837708,174.778381 522.899231,174.778381
	C523.050293,166.748245 521.633484,164.439087 514.974854,162.457092
M177.789688,170.110046
	C183.317352,167.760544 183.989227,168.126663 186.609970,174.776443
	C188.776230,174.776443 190.847031,174.776443 192.924393,174.776443
	C193.193604,169.892868 192.795975,165.395325 188.103424,163.343048
	C182.579742,160.927261 177.581711,162.172470 173.602097,168.226700
	C173.183334,165.839188 172.946198,164.487244 172.735077,163.283569
	C168.567123,163.283569 164.804428,163.283569 160.833359,163.283569
	C160.937637,165.338577 161.026550,167.090973 161.114761,168.829422
	C163.211731,168.977463 164.827698,169.091553 166.620789,169.218140
	C166.620789,176.175446 166.620789,182.913773 166.620789,189.763000
	C164.151978,189.946701 161.924545,190.112427 159.405777,190.299835
	C159.556107,192.464096 159.674881,194.174194 159.784088,195.746475
	C167.492020,195.746475 174.596863,195.746475 181.721451,195.746475
	C181.721451,193.750702 181.721451,192.017731 181.721451,190.168747
	C179.041687,190.026154 176.632828,189.897995 172.647980,189.685974
	C174.259567,182.926071 175.724655,176.780701 177.789688,170.110046
M400.883911,162.425735
	C393.628113,161.648041 387.202057,163.069992 383.283936,169.894485
	C379.756134,176.039154 380.373291,186.252579 384.722992,191.134323
	C391.814728,199.093597 400.824768,196.958496 410.085480,195.623611
	C409.582245,193.217972 409.159851,191.198853 408.745758,189.219299
	C396.778656,190.992584 392.234375,189.689560 389.832642,184.033371
	C387.829163,179.315063 389.021759,173.515457 392.540527,170.865097
	C396.579803,167.822678 400.044159,168.429749 406.513550,173.502075
	C408.094360,172.275345 409.752655,170.988495 411.411804,169.700989
	C409.635101,164.916779 405.921631,163.401337 400.883911,162.425735
z"/>
<path fill="#34393E" opacity="1.000000" stroke="none"
	d="
M72.898590,71.975250
	C68.103210,71.975197 63.790329,71.975197 58.961864,71.975197
	C58.961864,80.228004 58.961864,88.279129 58.961864,96.666397
	C55.890499,96.666397 53.312824,96.666397 50.389214,96.666397
	C50.389214,77.430313 50.389214,58.036213 50.389214,38.545528
	C61.658943,38.545528 73.072372,38.112244 84.430519,38.717041
	C90.688431,39.050262 95.275558,43.086994 96.582329,49.553360
	C98.029404,56.713989 96.660492,63.138042 89.751244,67.764786
	C94.666229,70.619774 95.777336,75.041176 96.079376,80.100311
	C96.406029,85.571899 97.335709,91.007484 98.031013,96.692932
	C95.740784,96.692932 92.518051,96.692932 88.412338,96.692932
	C88.204010,93.038185 87.984764,89.298409 87.778740,85.557899
	C87.110626,73.427780 85.653122,72.050804 72.898590,71.975250
M58.730938,52.561432
	C58.730938,56.489388 58.730938,60.417339 58.730938,65.094345
	C66.606285,64.734772 73.884583,64.754646 81.071732,63.955120
	C86.182526,63.386574 88.279533,60.123066 88.255241,54.841057
	C88.231117,49.595131 86.024498,46.229897 80.958054,45.861752
	C73.751427,45.338100 66.478371,45.728695 58.730881,45.728695
	C58.730881,47.686882 58.730881,49.636349 58.730938,52.561432
z"/>
<path fill="#E48934" opacity="1.000000" stroke="none"
	d="
M781.664795,309.838440
	C772.390869,311.202332 763.531372,312.495422 754.664978,313.739105
	C753.355286,313.922821 751.631042,314.419189 750.766174,313.815094
	C749.045471,312.613281 747.095764,310.922180 746.629456,309.081482
	C746.391235,308.140900 749.022400,305.488037 750.589111,305.268616
	C754.583679,304.709076 758.708984,305.082306 763.492920,305.082306
	C756.116028,291.085358 760.434692,277.557251 759.605774,264.218689
	C756.625366,262.848755 752.745117,261.591248 749.530823,259.369995
	C747.877441,258.227356 747.411072,255.367203 746.408264,253.283173
	C748.587769,252.849701 751.012451,251.569244 752.907776,252.117706
	C767.166870,256.243927 781.155884,261.282074 792.188965,271.672333
	C796.441406,275.677032 799.905518,280.778107 802.797241,285.905060
	C806.692505,292.811188 804.455139,299.739777 797.229858,303.640778
	C792.467407,306.212036 787.147461,307.750732 781.664795,309.838440
M791.247742,282.313538
	C782.681885,272.657745 774.280640,267.299316 766.390442,266.881622
	C767.531311,278.948547 768.662292,290.911255 769.890747,303.904205
	C776.585632,302.127747 782.510620,301.121796 787.989197,298.975983
	C797.420532,295.282043 798.188660,291.804199 792.327209,283.650696
	C792.133118,283.380707 791.915283,283.127777 791.247742,282.313538
z"/>
<path fill="#E48A35" opacity="1.000000" stroke="none"
	d="
M547.203552,304.605713
	C546.223816,294.960541 545.123047,285.773956 544.208557,276.568909
	C543.914001,273.603516 543.789307,270.548248 544.166443,267.608429
	C544.594116,264.275208 546.904114,262.010803 550.313538,262.304260
	C553.523926,262.580597 554.879089,264.910736 554.902527,268.303253
	C554.970703,278.181244 555.296387,288.057434 555.521118,297.934296
	C556.272888,298.137787 557.024658,298.341248 557.776428,298.544739
	C560.422607,293.598114 563.243103,288.734283 565.645508,283.671967
	C566.959106,280.903931 567.763916,277.559540 571.629700,278.477570
	C575.289612,279.346741 576.112793,282.575287 575.893372,286.004181
	C575.604858,290.511963 575.259460,295.016113 574.938477,299.521790
	C575.538025,299.666351 576.137512,299.810913 576.737061,299.955475
	C579.333496,294.722931 582.283447,289.631378 584.440308,284.223511
	C587.377075,276.859924 589.719788,269.258789 592.294861,261.751862
	C593.527039,258.159760 595.973999,256.629822 599.607544,257.816589
	C602.971924,258.915436 603.748352,261.513245 602.405151,264.600616
	C597.055969,276.896271 591.642212,289.164124 586.190491,301.414673
	C585.452759,303.072357 584.635681,304.851257 583.376465,306.085266
	C581.231323,308.187408 578.699158,311.450470 576.341858,311.440094
	C572.093262,311.421387 568.857300,308.247559 567.593201,303.775513
	C567.254944,302.578857 566.923279,301.380402 566.412964,299.554321
	C563.509766,303.048279 561.305664,306.443115 558.361572,308.978790
	C556.453674,310.622009 553.060608,312.246460 551.079041,311.598389
	C549.253174,311.001251 548.423340,307.358429 547.203552,304.605713
z"/>
<path fill="#E48933" opacity="1.000000" stroke="none"
	d="
M835.426514,286.411316
	C833.954712,288.236603 832.698486,289.782654 830.968140,291.912109
	C835.954956,296.489685 841.229675,300.911438 845.900330,305.898865
	C847.150146,307.233368 846.555969,310.294769 846.808289,312.563385
	C844.087097,312.832489 840.898865,314.107330 838.763367,313.115479
	C836.111450,311.883820 834.323425,308.783569 832.175781,306.477844
	C830.828064,305.031006 829.505127,303.561035 827.219788,301.060699
	C825.130676,303.820099 823.494202,306.406891 821.419800,308.574585
	C819.998840,310.059479 817.864441,311.993958 816.239502,311.830780
	C814.635010,311.669678 812.080566,309.167328 812.023682,307.615784
	C811.855469,303.028381 812.703796,298.402069 813.176086,293.793213
	C814.107422,284.704712 815.071716,275.619537 815.984375,266.529175
	C816.362183,262.765747 817.115723,259.314423 821.288147,257.858551
	C824.768921,256.644073 826.515076,257.676697 826.027893,261.468201
	C825.266174,267.395721 824.376709,273.306732 823.552368,279.226288
	C823.281616,281.170410 823.045044,283.119263 822.792786,285.065948
	C823.177124,285.294739 823.561462,285.523529 823.945862,285.752319
	C826.446960,282.656219 828.833618,279.458405 831.473267,276.485291
	C836.858582,270.419495 842.224854,264.322083 847.908142,258.541565
	C850.954224,255.443420 854.698425,255.991379 856.714172,259.203796
	C859.073730,262.964111 856.692566,264.431305 853.871338,266.622681
	C849.896606,269.710052 846.644470,273.747620 843.188354,277.476318
	C840.587463,280.282349 838.151489,283.241302 835.426514,286.411316
z"/>
<path fill="#E48A35" opacity="1.000000" stroke="none"
	d="
M493.928284,305.008789
	C508.331635,290.337372 521.097717,275.002716 527.012634,255.141800
	C527.986328,251.872421 530.504028,250.163071 533.373413,251.350220
	C534.989685,252.018875 536.586182,255.048920 536.556824,256.990540
	C536.411499,266.616730 535.745789,276.236053 535.210388,285.854858
	C535.027527,289.139282 534.614563,292.362274 539.515259,292.409241
	C540.312317,292.416870 541.096191,293.803772 541.784424,294.456635
	C541.522461,295.128876 541.476013,295.632019 541.277405,295.701782
	C535.687561,297.664551 535.874573,301.777008 537.256958,306.355896
	C537.448853,306.991455 537.679688,307.634247 537.739136,308.287659
	C538.017700,311.349731 538.398254,314.558929 534.072388,315.078125
	C530.950623,315.452789 527.936829,312.366455 527.858398,308.750397
	C527.829712,307.431580 528.215759,306.106262 528.219238,304.783417
	C528.222229,303.654968 527.948242,302.525757 527.683105,300.549011
	C523.423157,301.269989 519.454712,302.192322 515.435242,302.565643
	C508.701294,303.191040 503.526672,306.355225 498.742004,310.966827
	C496.809418,312.829529 493.888641,316.944336 490.905853,313.725983
	C488.176086,310.780609 491.476379,307.730530 493.928284,305.008789
M527.316345,290.577545
	C527.316345,285.961029 527.316345,281.344513 527.316345,275.965210
	C522.638550,282.515198 518.518738,288.283844 514.398987,294.052490
	C514.667297,294.502228 514.935608,294.951965 515.203857,295.401703
	C519.194580,294.075165 523.185242,292.748627 527.316345,290.577545
z"/>
<path fill="#E48934" opacity="1.000000" stroke="none"
	d="
M621.299011,274.418579
	C625.333862,276.882477 629.258057,278.882233 633.025024,281.143890
	C637.542480,283.856110 642.343994,286.315430 646.259888,289.752991
	C650.986694,293.902405 650.767578,299.732117 646.449280,304.306122
	C644.884338,305.963806 643.028320,307.709900 640.958130,308.467072
	C629.711914,312.580200 618.478027,312.288513 607.585571,307.176025
	C604.023376,305.504059 602.248779,300.755249 604.220398,298.449493
	C606.893982,295.322815 609.735657,296.971344 612.555603,298.827637
	C620.651855,304.157135 629.448181,302.752716 638.035095,300.704803
	C641.615051,299.850983 641.851257,296.792297 638.755493,294.393005
	C636.164124,292.384705 633.260254,290.695312 630.301697,289.263580
	C624.930664,286.664368 619.340637,284.515198 613.988342,281.880859
	C610.479309,280.153717 607.156433,277.636139 607.583923,273.233521
	C607.788879,271.123230 609.258728,268.123779 610.979919,267.342163
	C620.020264,263.237183 629.278687,259.593048 638.567322,256.068054
	C640.973145,255.155060 643.773071,254.881195 646.368713,254.972855
	C649.343140,255.077881 651.514526,256.757263 650.951477,260.153351
	C650.407349,263.435760 648.402283,264.533173 645.161255,263.361877
	C644.281921,263.044098 643.083496,262.889191 642.267822,263.228149
	C635.377563,266.091858 628.530640,269.061737 621.718811,272.107422
	C621.308289,272.290955 621.309204,273.394836 621.299011,274.418579
z"/>
<path fill="#353A3F" opacity="1.000000" stroke="none"
	d="
M173.409607,70.843201
	C176.547165,70.249084 179.182404,69.616852 178.950455,65.953339
	C178.725311,62.396767 176.548096,60.684807 173.311310,59.941277
	C166.079285,58.279991 162.407700,60.170452 159.606766,67.160484
	C157.567459,67.160484 155.457642,67.160484 153.362030,67.160484
	C152.585831,59.827900 155.613586,55.204716 163.337021,53.641769
	C167.620224,52.775005 172.363876,52.803932 176.655075,53.658688
	C184.338089,55.189049 186.713715,58.741108 186.765457,66.739166
	C186.817017,74.708092 186.776749,82.677605 186.776749,90.646866
	C187.245514,90.453583 187.714279,90.260300 188.183044,90.067017
	C189.247910,91.620857 190.664536,93.063423 191.208252,94.782135
	C191.432602,95.491310 189.975861,97.385689 188.950485,97.720520
	C185.098953,98.978226 181.810928,97.204880 179.710388,93.730782
	C174.538284,95.318077 169.684433,97.570251 164.632599,98.178619
	C157.134583,99.081581 151.727722,94.496452 150.697327,87.677696
	C149.570465,80.220612 153.091812,74.787758 160.713531,72.895012
	C164.723618,71.899170 168.891220,71.537529 173.409607,70.843201
M166.913986,78.136139
	C166.272369,78.298782 165.632462,78.468590 164.988846,78.622917
	C160.743164,79.640938 158.069611,81.897110 158.986160,86.683311
	C159.665466,90.230568 163.451141,92.112450 168.119217,91.401581
	C176.408966,90.139183 179.883347,85.002792 178.460052,76.293419
	C174.886841,76.874268 171.315140,77.454872 166.913986,78.136139
z"/>
<path fill="#33383C" opacity="1.000000" stroke="none"
	d="
M346.117737,52.925514
	C360.690674,53.369293 367.750458,62.365219 365.775299,77.959282
	C355.788666,77.959282 345.723755,77.959282 335.647247,77.959282
	C336.053162,85.992294 338.489929,89.868904 343.674683,91.179955
	C350.031677,92.787437 354.024689,90.617172 358.395203,83.185905
	C360.695343,83.192276 362.994812,83.192276 365.308472,83.192276
	C364.506927,90.701920 358.998016,96.676811 351.861481,97.955490
	C341.702789,99.775665 333.518585,96.645096 329.663849,88.721771
	C325.320831,79.794769 325.594849,70.623474 330.515167,61.961147
	C333.758514,56.251183 338.983551,53.197258 346.117737,52.925514
M357.704254,68.151695
	C354.840851,61.280384 350.479614,58.643841 344.259308,60.023678
	C339.298096,61.124218 335.863403,66.053047 336.333649,71.771591
	C342.784607,71.771591 349.270294,71.862686 355.745789,71.647430
	C356.490875,71.622665 357.179199,69.890213 357.704254,68.151695
z"/>
<path fill="#33383C" opacity="1.000000" stroke="none"
	d="
M123.252670,91.524063
	C130.025009,91.950722 133.974319,88.679108 136.226028,83.204727
	C138.743637,83.204727 141.039932,83.204727 143.360245,83.204727
	C142.245102,92.080261 136.432419,97.278450 126.818062,98.188690
	C116.829086,99.134384 108.272514,94.500603 106.385193,85.477951
	C105.105804,79.361679 105.106377,72.467949 106.558121,66.406593
	C108.881866,56.704426 117.975761,51.790474 128.230011,53.045719
	C137.439758,54.173100 143.472519,61.076080 144.082077,71.267807
	C144.200684,73.250900 144.099136,75.247162 144.099136,77.741623
	C133.991104,77.741623 123.924309,77.741623 113.879768,77.741623
	C113.617279,86.004982 116.029861,89.561127 123.252670,91.524063
M123.765617,59.854736
	C116.979912,61.355919 113.825478,65.207542 114.298279,71.588684
	C121.410706,71.588684 128.534576,71.588684 135.654175,71.588684
	C135.808304,64.075020 132.322708,60.422295 123.765617,59.854736
z"/>
<path fill="#E48933" opacity="1.000000" stroke="none"
	d="
M703.524048,281.796143
	C699.875854,293.831390 710.684753,304.673889 723.882874,302.852203
	C727.156189,302.400391 730.492859,302.046814 733.775269,302.197113
	C735.116760,302.258545 737.159241,303.568787 737.466919,304.697021
	C737.740295,305.699249 736.364502,307.753601 735.187134,308.456116
	C723.393311,315.493134 700.922241,308.144775 695.453369,295.552582
	C691.879761,287.324158 694.931519,279.733887 698.722595,272.754700
	C703.339966,264.254242 709.809448,257.709808 720.840454,258.872040
	C721.866943,258.980164 722.969604,258.127686 724.039368,258.121185
	C725.433350,258.112701 727.798950,258.109375 728.074036,258.784790
	C730.592773,264.970306 735.486511,270.539612 733.994507,277.850342
	C733.635254,279.610870 731.927856,281.096283 730.840454,282.708221
	C729.098633,281.501190 726.926392,280.610016 725.741150,278.994568
	C724.646973,277.503143 724.619568,275.232819 724.108154,273.309326
	C722.341003,266.662659 717.145752,264.682526 712.254517,269.460510
	C708.800476,272.834503 706.524109,277.414093 703.524048,281.796143
z"/>
<path fill="#363B40" opacity="1.000000" stroke="none"
	d="
M352.870544,308.263672
	C350.355835,299.480438 347.929077,291.092224 345.505188,282.713928
	C350.548798,281.016846 352.720123,282.373871 353.556091,287.178497
	C354.630096,293.351410 356.492035,299.387238 358.326721,306.731934
	C360.577423,297.794067 362.498260,290.166138 364.395325,282.632690
	C371.293793,281.508514 371.294830,281.508270 372.887451,287.945526
	C374.322662,293.746643 375.755188,299.548401 377.517578,306.680023
	C379.920380,297.765747 381.996613,290.063080 384.101837,282.252747
	C386.057068,282.252747 387.844696,282.252747 390.370728,282.252747
	C387.083954,293.646484 383.897430,304.692780 380.681213,315.841919
	C378.485077,315.841919 376.521820,315.841919 374.226715,315.841919
	C372.171783,308.298706 370.105347,300.713287 367.696594,291.871246
	C365.438110,300.673553 363.542999,308.059601 361.577240,315.721008
	C359.474457,315.721008 357.378479,315.721008 355.068481,315.721008
	C354.377289,313.407532 353.667877,311.033112 352.870544,308.263672
z"/>
<path fill="#383D42" opacity="1.000000" stroke="none"
	d="
M263.012695,89.328735
	C269.493652,89.328789 275.477783,89.328789 281.867981,89.328789
	C281.867981,91.865944 281.867981,94.240395 281.867981,96.824219
	C269.429718,96.824219 257.030853,96.824219 244.348251,96.824219
	C244.348251,77.270790 244.348251,57.898689 244.348251,38.223061
	C246.968979,38.223061 249.554703,38.223061 252.685181,38.223061
	C252.685181,55.027710 252.685181,71.896957 252.685181,89.328682
	C256.306488,89.328682 259.411194,89.328682 263.012695,89.328735
z"/>
<path fill="#373C41" opacity="1.000000" stroke="none"
	d="
M322.110901,44.213898
	C314.820068,44.260162 316.859253,49.478474 316.181885,53.628872
	C318.482666,53.817852 320.562103,53.988651 322.977966,54.187088
	C322.977966,56.064205 322.977966,57.960831 322.977966,59.987503
	C320.849609,60.089275 318.866211,60.184113 316.318329,60.305943
	C316.318329,72.396729 316.318329,84.460373 316.318329,96.766708
	C313.499847,96.766708 311.238495,96.766708 308.559814,96.766708
	C308.559814,84.783188 308.559814,72.828156 308.559814,60.614117
	C306.459229,60.315491 304.726135,60.069107 302.787994,59.793575
	C302.787994,57.940487 302.787994,56.173153 302.787994,54.173592
	C304.578705,54.040260 306.186218,53.920567 307.075836,53.854328
	C308.640228,48.730465 309.138824,43.299515 311.887421,39.493458
	C313.585876,37.141563 318.709259,37.263062 323.562134,35.924774
	C323.098602,39.601540 322.809875,41.891617 322.110901,44.213898
z"/>
<path fill="#31363B" opacity="1.000000" stroke="none"
	d="
M445.013153,287.893768
	C437.602325,286.302490 433.364685,289.467377 433.093689,296.743011
	C432.859772,303.021881 433.045105,309.316345 433.045105,315.794922
	C430.789337,315.794922 429.049927,315.794922 427.088928,315.794922
	C427.088928,300.164490 427.088928,284.743805 427.088928,269.040833
	C428.962952,269.040833 430.708221,269.040833 432.947693,269.040833
	C432.947693,274.202667 432.947693,279.413391 432.947693,284.507904
	C435.938477,283.437225 438.445374,282.119751 441.099548,281.668518
	C448.979553,280.328857 453.778931,284.000763 454.149933,291.971344
	C454.512665,299.763214 454.228882,307.585175 454.228882,315.699951
	C452.299744,315.699951 450.423615,315.699951 448.048248,315.699951
	C448.048248,308.782166 448.277863,301.979156 447.925354,295.206451
	C447.799652,292.791534 446.262939,290.450073 445.013153,287.893768
z"/>
<path fill="#33383C" opacity="1.000000" stroke="none"
	d="
M198.069885,52.007210
	C198.069885,47.200115 198.069885,42.891205 198.069885,38.260788
	C200.726883,38.260788 203.108902,38.260788 205.746887,38.260788
	C205.746887,57.702579 205.746887,77.108673 205.746887,96.762421
	C203.279282,96.762421 201.009079,96.762421 198.069870,96.762421
	C198.069870,82.035286 198.069870,67.270340 198.069885,52.007210
z"/>
<path fill="#353A3F" opacity="1.000000" stroke="none"
	d="
M415.535858,272.156311
	C416.167786,275.300507 416.391541,278.269287 416.643311,281.609314
	C418.037842,281.858978 419.592743,282.137360 421.537079,282.485443
	C421.622040,283.790649 421.712921,285.187225 421.820404,286.838654
	C420.005768,287.160980 418.445129,287.438202 416.427521,287.796570
	C416.427521,294.521271 416.179443,301.160980 416.611725,307.756042
	C416.712738,309.297363 419.121063,310.687469 420.467834,312.147156
	C420.824432,311.923035 421.181000,311.698914 421.537598,311.474792
	C421.537598,312.893402 421.537598,314.312012 421.537598,315.703094
	C413.023560,317.799683 410.148529,315.681641 410.083252,307.285553
	C410.034088,300.963745 410.073547,294.641235 410.073547,287.996307
	C408.690247,287.594574 407.357208,287.207428 404.476776,286.370880
	C406.331970,284.188232 407.750336,282.519531 409.168701,280.850830
	C409.483002,281.045807 409.797272,281.240784 410.111572,281.435791
	C410.111572,278.472076 410.111572,275.508392 410.111572,271.980896
	C411.947235,271.980896 413.537476,271.980896 415.535858,272.156311
z"/>
<path fill="#3A3F43" opacity="1.000000" stroke="none"
	d="
M288.356750,84.976311
	C288.356812,74.512100 288.356812,64.543045 288.356812,54.263588
	C291.103119,54.263588 293.504730,54.263588 296.114868,54.263588
	C296.114868,68.457138 296.114868,82.573318 296.114868,96.858543
	C293.646545,96.858543 291.345673,96.858543 288.356689,96.858543
	C288.356689,93.000557 288.356689,89.236015 288.356750,84.976311
z"/>
<path fill="#3B4045" opacity="1.000000" stroke="none"
	d="
M751.967773,392.271362
	C747.859741,390.246979 743.862183,388.502930 739.768677,387.024445
	C734.335205,385.062012 732.475464,379.822571 735.684998,375.058289
	C737.955322,371.688019 743.291565,370.168701 748.354492,371.475586
	C752.835144,372.632141 755.654114,375.151367 755.476746,381.591919
	C753.555664,380.398193 752.296936,379.666870 751.092041,378.855499
	C749.274536,377.631622 747.454712,375.290222 745.708435,375.355896
	C743.354553,375.444427 739.802429,376.821289 739.025696,378.621063
	C737.527893,382.091766 741.164551,382.697418 743.702515,383.392242
	C745.945862,384.006378 748.228638,384.474945 750.478088,385.068176
	C754.335327,386.085327 756.474976,388.707275 756.574524,392.600708
	C756.677917,396.642517 754.764465,399.493286 750.733582,400.879120
	C742.352600,403.760529 732.760193,400.017578 733.494080,390.455383
	C735.370117,391.805817 737.167725,392.447144 737.816467,393.688721
	C739.783081,397.452881 742.932129,398.261566 746.617310,397.784149
	C749.507996,397.409698 752.345398,396.606750 751.967773,392.271362
z"/>
<path fill="#373C41" opacity="1.000000" stroke="none"
	d="
M618.104370,400.405945
	C616.591248,400.804047 615.317017,400.868530 613.426758,400.964172
	C616.954712,391.615112 620.211731,382.776764 623.698181,374.029846
	C624.094666,373.035248 625.884460,371.861725 626.840698,372.006805
	C628.089233,372.196259 629.747375,373.386719 630.197388,374.546753
	C633.496826,383.053375 636.538330,391.660095 639.737915,400.446350
	C637.000305,401.424622 634.570435,401.750763 634.077454,398.257629
	C633.318542,392.880768 630.127258,392.296875 625.365295,392.154602
	C620.070312,391.996399 620.247070,395.746826 618.944641,398.707764
	C618.744507,399.162750 618.543884,399.617493 618.104370,400.405945
M626.050049,378.843964
	C624.950378,382.023254 623.850708,385.202515 622.689270,388.560181
	C625.547302,388.560181 627.758911,388.560181 630.517822,388.560181
	C629.658752,385.966949 629.009277,383.793243 628.209717,381.676208
	C627.758118,380.480469 627.059692,379.378052 626.050049,378.843964
z"/>
<path fill="#383D42" opacity="1.000000" stroke="none"
	d="
M669.922974,401.239197
	C662.882874,397.167358 661.202881,387.737671 666.237671,381.979218
	C669.489990,378.259460 673.523499,378.709320 677.572632,380.330261
	C680.369690,378.260895 675.945007,372.366119 682.220825,371.380890
	C682.220825,381.643921 682.220825,391.054840 682.220825,400.544495
	C678.212280,400.808929 674.254639,401.070007 669.922974,401.239197
M677.667664,394.966125
	C677.859802,392.528046 678.834595,389.776794 678.020203,387.741455
	C677.232483,385.772736 674.664673,383.442474 672.762207,383.335144
	C671.255005,383.250092 668.730408,386.040009 668.154602,387.994446
	C667.177856,391.309540 667.106323,395.441284 670.875854,397.176575
	C672.428223,397.891235 675.083374,396.210510 677.667664,394.966125
z"/>
<path fill="#404549" opacity="1.000000" stroke="none"
	d="
M710.671387,379.107422
	C717.439148,381.547211 719.143066,384.312286 718.426575,391.674927
	C713.742432,391.674927 708.996826,391.674927 702.522522,391.674927
	C704.642212,394.453339 705.633179,397.050018 707.212891,397.479126
	C708.999329,397.964325 711.372620,396.648041 713.379822,395.839874
	C714.807495,395.265076 716.051758,394.234741 718.321350,392.819336
	C717.700256,399.054382 714.551025,401.098907 710.383606,401.651459
	C706.098328,402.219696 702.509766,400.677795 700.495056,396.591797
	C697.132690,389.772919 700.026489,378.535217 710.671387,379.107422
M706.829956,388.242340
	C709.220764,388.242340 711.611572,388.242340 714.002380,388.242340
	C714.229492,387.697815 714.456604,387.153290 714.683716,386.608765
	C713.069641,385.396820 711.529053,383.358948 709.820801,383.207031
	C708.139526,383.057526 706.288086,384.820526 704.511353,385.744354
	C704.990234,386.574738 705.469055,387.405121 706.829956,388.242340
z"/>
<path fill="#404549" opacity="1.000000" stroke="none"
	d="
M826.871216,379.849121
	C831.776306,383.075073 832.806702,385.486267 831.979065,391.762054
	C827.357483,391.762054 822.641602,391.762054 817.925720,391.762054
	C817.656128,392.161560 817.386536,392.561066 817.116943,392.960602
	C818.430542,394.569153 819.508789,397.132721 821.120911,397.529938
	C822.894958,397.967102 825.200073,396.510223 827.197632,395.692474
	C828.641296,395.101471 829.960571,394.206665 832.053467,393.050690
	C830.557800,400.043701 826.299133,402.777832 820.631165,401.455658
	C814.722534,400.077332 811.679932,394.219940 813.279480,387.302521
	C814.746521,380.958374 819.611267,378.171631 826.871216,379.849121
M827.437378,385.408691
	C825.420288,384.631287 823.335754,383.132141 821.408020,383.312103
	C819.949890,383.448273 818.691772,385.728241 817.344666,387.054138
	C820.780823,388.252197 823.426025,388.386841 826.039062,388.156708
	C826.685486,388.099792 827.227661,386.858826 827.437378,385.408691
z"/>
<path fill="#383D42" opacity="1.000000" stroke="none"
	d="
M838.124939,371.861908
	C839.092773,373.041077 839.955750,374.203644 840.026733,375.412720
	C840.240845,379.058563 840.144104,382.722565 840.189453,386.379211
	C840.190674,386.473297 840.433594,386.564392 840.711060,386.761475
	C845.041687,385.168243 846.425842,378.215790 853.420654,379.952728
	C850.369568,382.158295 847.648071,384.125671 844.913147,386.102692
	C848.590942,391.873688 851.233093,396.019623 854.206360,400.685150
	C846.024963,402.326233 846.848999,393.886017 841.454895,390.804932
	C840.765625,394.165466 840.144165,397.195221 839.284607,401.386200
	C838.240906,400.573730 836.317627,399.785126 836.298401,398.952484
	C836.098511,390.312378 836.186768,381.664917 836.287537,373.020599
	C836.292114,372.630646 837.180969,372.251007 838.124939,371.861908
z"/>
<path fill="#3B4045" opacity="1.000000" stroke="none"
	d="
M787.405701,385.082062
	C787.710449,387.756653 788.120728,390.090424 787.911438,392.367249
	C787.374084,398.213348 783.602234,401.808441 778.344177,401.845612
	C772.824585,401.884613 769.306091,398.708557 768.340210,392.815277
	C767.364563,386.862488 770.052490,381.307312 774.730408,379.608612
	C779.710022,377.800354 784.016541,379.559967 787.405701,385.082062
M772.820312,393.610809
	C775.349915,398.519135 780.413452,399.880829 782.109863,395.826172
	C783.419128,392.696777 783.012024,388.569885 782.360596,385.074188
	C782.171448,384.059082 778.226562,382.716278 776.499695,383.221313
	C772.440552,384.408386 772.380066,388.301178 772.434448,391.877411
	C772.439392,392.203400 772.568848,392.527496 772.820312,393.610809
z"/>
<path fill="#3A3F43" opacity="1.000000" stroke="none"
	d="
M655.890259,393.123810
	C655.882324,391.164459 656.007202,389.653564 655.836731,388.176758
	C655.549377,385.688660 655.221924,382.415802 651.870972,383.186005
	C649.833740,383.654266 647.146606,386.044952 646.764038,387.971680
	C645.972534,391.957947 646.525452,396.211121 646.525452,400.373505
	C643.637207,401.515350 642.122253,401.349487 642.198608,398.028748
	C642.317017,392.879791 642.288696,387.725128 642.205566,382.574768
	C642.160645,379.794067 643.161865,379.053802 645.842285,379.936066
	C646.929260,380.293854 648.378174,380.032959 649.525146,379.646423
	C655.286316,377.704803 659.612061,380.416199 659.917053,386.458344
	C660.109558,390.271362 660.171936,394.115692 659.880737,397.914429
	C659.783020,399.188690 658.412842,400.365387 657.624329,401.586670
	C657.046265,401.355774 656.468262,401.124878 655.890259,400.893982
	C655.890259,398.458527 655.890259,396.023041 655.890259,393.123810
z"/>
<path fill="#3A3F43" opacity="1.000000" stroke="none"
	d="
M793.899902,401.009094
	C792.920044,400.187805 791.974426,399.371918 791.957092,398.536713
	C791.829773,392.419647 791.888428,386.298737 791.888428,380.441254
	C795.492432,379.949463 798.778137,379.169983 802.071594,379.135742
	C806.162964,379.093231 809.171692,380.928192 809.238281,385.584595
	C809.309265,390.545898 809.254211,395.509003 809.254211,400.543732
	C806.581604,401.552368 805.079956,401.228455 805.206604,397.971130
	C805.335388,394.658905 805.273499,391.334869 805.174194,388.019623
	C805.096191,385.414001 804.590332,382.317413 801.238342,383.182129
	C799.217712,383.703400 796.799194,386.077209 796.241333,388.085754
	C795.384033,391.171967 796.095764,394.668152 795.877563,397.972931
	C795.808960,399.012573 794.892395,399.996246 793.899902,401.009094
z"/>
<path fill="#2F3439" opacity="1.000000" stroke="none"
	d="
M400.655884,282.685059
	C400.983093,293.796600 400.983093,304.590424 400.983093,315.785614
	C399.195465,315.870026 397.440765,315.952850 395.336395,316.052185
	C395.336395,304.805176 395.336395,293.763641 395.336395,282.367310
	C397.095642,282.367310 398.712158,282.367310 400.655884,282.685059
z"/>
<path fill="#33383C" opacity="1.000000" stroke="none"
	d="
M234.707001,71.284576
	C234.758331,73.553146 234.758331,75.367821 234.758331,77.596146
	C227.990784,77.596146 221.327057,77.596146 214.342499,77.596146
	C214.342499,75.383301 214.342499,73.008591 214.342499,69.664597
	C221.117523,70.053520 227.886612,70.442101 234.707001,71.284576
z"/>
<path fill="#3A3F43" opacity="1.000000" stroke="none"
	d="
M697.550598,379.497864
	C697.167480,381.018188 696.767700,383.035248 695.829346,383.328308
	C692.028259,384.515533 691.145874,387.204315 691.148315,390.634308
	C691.150635,393.936646 691.148804,397.239014 691.148804,400.541351
	C690.716675,400.853577 690.284546,401.165802 689.852478,401.477997
	C688.930725,400.407104 687.261108,399.369263 687.212036,398.259766
	C686.948242,392.292511 687.087280,386.307465 687.087280,380.356964
	C690.633545,379.955383 693.959900,379.578735 697.550598,379.497864
z"/>
<path fill="#404549" opacity="1.000000" stroke="none"
	d="
M764.797974,383.532837
	C764.797913,388.605682 764.669739,393.241669 764.841614,397.866455
	C764.960388,401.062500 763.587097,401.603424 760.764771,400.613831
	C760.764771,393.908295 760.764771,387.163971 760.764771,380.130676
	C763.573486,379.198822 765.189697,379.654114 764.797974,383.532837
z"/>
<path fill="#404549" opacity="1.000000" stroke="none"
	d="
M293.743530,37.903606
	C298.842163,39.795574 295.100464,43.476849 296.498779,46.477150
	C293.603333,46.477150 291.260040,46.477150 288.620422,46.477150
	C288.620422,43.720375 288.620422,41.169693 288.620422,38.165047
	C290.178131,38.077400 291.742950,37.989357 293.743530,37.903606
z"/>
<path fill="#353A3F" opacity="1.000000" stroke="none"
	d="
M396.284912,276.770752
	C395.451447,274.337189 395.065063,271.983459 394.611725,269.221985
	C397.087402,269.221985 398.959442,269.221985 401.047424,269.221985
	C401.047424,271.624603 401.047424,273.897186 401.047424,276.619049
	C399.584473,276.697540 398.158234,276.774078 396.284912,276.770752
z"/>
<path fill="#404549" opacity="1.000000" stroke="none"
	d="
M710.178101,375.400452
	C708.722778,376.290680 707.525024,376.876282 705.754517,377.741943
	C707.836121,371.078644 708.143860,370.841583 713.339172,371.617096
	C712.276672,372.890137 711.356262,373.993011 710.178101,375.400452
z"/>
<path fill="#FFFFFF" opacity="1.000000" stroke="none"
	d="
M812.995667,180.995819
	C812.995667,186.135452 812.995667,190.775864 812.995667,195.864349
	C810.103333,195.609085 806.745361,198.430832 805.605164,193.241562
	C801.270203,197.340317 796.294067,197.811737 791.228699,195.648697
	C786.330994,193.557236 784.265198,189.228149 783.928162,184.086594
	C783.755066,181.445892 783.624390,178.766663 783.864929,176.140625
	C785.028931,163.435791 794.245911,158.644547 805.673828,165.330841
	C805.673828,159.992050 805.673828,154.952957 805.673828,149.597351
	C808.290527,149.597351 810.352417,149.597351 812.995667,149.597351
	C812.995667,159.966476 812.995667,170.231537 812.995667,180.995819
M792.115540,172.952362
	C791.759949,176.363876 790.938416,179.805817 791.158813,183.179718
	C791.482544,188.135834 794.606140,190.301926 799.528992,190.098709
	C804.635010,189.887909 805.866760,186.699265 805.727478,182.404465
	C805.652832,180.100143 805.899475,177.593109 805.070923,175.555878
	C804.108032,173.188324 802.565796,170.353943 800.481079,169.314270
	C797.559204,167.857132 794.311401,168.931427 792.115540,172.952362
z"/>
<path fill="#FFFFFF" opacity="1.000000" stroke="none"
	d="
M836.751404,189.873093
	C840.614380,189.940918 844.065796,189.940918 848.186951,189.940918
	C848.455505,191.396439 848.823608,193.391464 849.298584,195.966095
	C845.233093,196.279709 841.634460,196.913300 838.071167,196.754288
	C831.653931,196.467926 825.713379,194.522186 823.153503,187.959351
	C820.526550,181.224518 820.375610,174.215744 824.557129,167.947754
	C828.072876,162.677567 833.562805,161.456802 839.517456,162.469864
	C845.564758,163.498703 849.291992,167.099411 850.127930,173.289688
	C850.536926,176.318253 850.643555,179.387650 850.926453,182.932861
	C846.604492,182.932861 843.153259,182.932861 839.701965,182.932861
	C836.383240,182.932861 833.064514,182.932861 829.446655,182.932861
	C829.968628,187.251938 833.187927,188.495560 836.751404,189.873093
M837.287476,168.999481
	C831.500610,169.466980 829.579468,171.298218 829.200012,176.646790
	C834.051697,176.646790 838.900696,176.646790 843.749695,176.646790
	C844.076782,176.179443 844.403931,175.712082 844.731018,175.244736
	C842.515076,173.177521 840.299194,171.110306 837.287476,168.999481
z"/>
<path fill="#FFFFFF" opacity="1.000000" stroke="none"
	d="
M556.914734,173.618683
	C556.966614,176.836655 556.966614,179.627228 556.966614,182.793945
	C549.845764,182.793945 543.078125,182.793945 536.260681,182.793945
	C537.293579,189.751648 542.874756,190.786560 554.673706,189.623917
	C554.978333,191.516266 555.286194,193.428680 555.706177,196.037827
	C550.238953,196.037827 544.905151,196.750412 539.841370,195.884445
	C530.297791,194.252396 525.759460,184.535141 528.693970,173.473587
	C531.136841,164.265091 538.410095,160.333481 547.865784,162.914597
	C553.229736,164.378784 555.556458,168.285751 556.914734,173.618683
M545.775818,169.348633
	C538.888000,168.563385 536.884705,169.973251 535.398193,176.667877
	C540.252808,176.667877 545.095764,176.667877 551.677979,176.667877
	C549.399048,173.681519 547.919067,171.742035 545.775818,169.348633
z"/>
<path fill="#FFFFFF" opacity="1.000000" stroke="none"
	d="
M221.177734,196.298157
	C219.680923,195.439331 218.572662,194.557465 217.555527,193.748108
	C215.063721,194.649353 212.125946,196.429520 209.095764,196.603912
	C206.128464,196.774673 202.668533,195.961823 200.137421,194.414825
	C196.027252,191.902725 195.569427,187.187164 197.236862,183.262802
	C200.988312,174.433716 209.349014,176.236313 217.487930,175.980774
	C214.472107,166.759247 206.409332,170.621719 200.583618,168.489426
	C200.770828,166.802353 200.981400,164.904724 201.232819,162.638977
	C208.563599,162.997849 217.426086,160.813171 221.429626,168.029068
	C224.642838,173.820496 224.142075,181.672516 225.409698,189.337402
	C226.098083,189.519333 227.812088,189.972336 229.733322,190.480103
	C229.733322,192.063004 229.733322,193.694427 229.733322,196.275131
	C227.091888,196.275131 224.329102,196.275131 221.177734,196.298157
M215.082199,182.065613
	C212.154663,182.332901 209.002838,182.048508 206.397293,183.107803
	C205.155365,183.612717 204.952271,186.672791 204.278610,188.575455
	C207.333420,188.951889 210.648895,190.235901 213.371063,189.454102
	C216.194946,188.643097 218.658478,185.902878 215.082199,182.065613
z"/>
<path fill="#FFFFFF" opacity="1.000000" stroke="none"
	d="
M628.017944,196.155624
	C625.898560,196.174332 624.250793,196.174332 622.290466,196.174332
	C622.112061,194.726471 621.946350,193.381866 621.754456,191.824524
	C617.148804,196.880325 611.358337,198.109863 605.388367,195.518616
	C601.760071,193.943771 600.195618,191.006607 600.028870,187.235703
	C599.852966,183.257538 601.295654,179.913971 604.960388,178.180740
	C607.307251,177.070786 609.977539,176.449875 612.568726,176.106384
	C615.174805,175.760910 617.862366,176.030396 621.006531,176.030396
	C618.233215,166.619415 609.996277,170.645218 604.424500,168.603729
	C603.920410,162.512482 603.920776,162.502457 609.846985,162.709259
	C611.845032,162.778961 613.856079,162.791779 615.834900,163.040298
	C623.646240,164.021271 627.695740,168.443253 627.915588,176.295975
	C628.031860,180.450485 627.936096,184.610947 627.936096,189.070435
	C629.631470,189.515869 631.172424,189.920715 632.965576,190.391830
	C632.965576,192.070374 632.965576,193.821671 632.965576,195.816803
	C631.425049,195.926987 629.957336,196.031952 628.017944,196.155624
M615.457886,181.982437
	C613.983276,182.089386 612.202087,181.716492 611.106445,182.416550
	C609.494934,183.446274 608.372681,185.241760 607.042053,186.711029
	C608.557983,187.980423 609.901306,189.971039 611.622437,190.382919
	C616.622314,191.579437 620.097046,188.425476 620.576843,182.462753
	C619.171997,182.305054 617.746460,182.145050 615.457886,181.982437
z"/>
<path fill="#FFFFFF" opacity="1.000000" stroke="none"
	d="
M777.054016,179.046539
	C776.782776,192.879364 768.947327,199.502335 757.538513,196.004028
	C757.065918,195.859116 756.582153,195.734406 756.131409,195.536850
	C748.954956,192.391724 745.714172,181.157394 749.148438,171.356400
	C751.710815,164.043304 758.812378,160.648254 766.939331,162.851013
	C773.618530,164.661392 776.834290,169.672562 777.054016,179.046539
M768.858887,174.341248
	C766.717407,172.571747 764.671143,169.589645 762.404602,169.411575
	C760.549194,169.265808 757.307739,172.133301 756.689331,174.251373
	C755.728882,177.541321 755.756104,181.548416 756.755432,184.827698
	C757.397949,186.936157 760.686951,189.781006 762.513489,189.594208
	C764.783325,189.362061 767.705322,186.720932 768.631958,184.427719
	C769.720520,181.734146 768.969238,178.297119 768.858887,174.341248
z"/>
<path fill="#FFFFFF" opacity="1.000000" stroke="none"
	d="
M715.673279,191.326752
	C708.502686,181.277390 708.356689,170.728119 713.317322,160.423401
	C718.594604,149.460907 736.503052,147.790024 743.354614,157.628143
	C741.790588,158.895996 740.139587,160.234360 738.214844,161.794647
	C734.557617,158.095184 729.939392,156.311295 724.730957,159.197647
	C719.542175,162.073105 717.954651,166.988434 717.872559,172.661499
	C717.665039,187.007401 724.614380,192.451065 738.812134,188.952148
	C739.419495,188.802460 740.045959,188.730331 740.789124,188.600067
	C741.222778,189.552979 741.676575,190.257339 741.861511,191.026382
	C742.125122,192.122482 742.191406,193.266022 742.373901,194.626465
	C732.925781,197.482224 724.000366,198.506149 715.673279,191.326752
z"/>
<path fill="#FFFFFF" opacity="1.000000" stroke="none"
	d="
M475.000000,170.070282
	C475.000000,167.603333 475.000000,165.624680 475.000000,163.318115
	C477.404510,163.318115 479.602722,163.318115 482.278778,163.318115
	C482.278778,170.501663 482.423767,177.605453 482.214661,184.698807
	C482.117218,188.003708 482.545807,190.377426 486.731750,190.117691
	C486.731750,192.086533 486.731750,193.837509 486.731750,196.339539
	C482.612335,194.594833 477.147034,199.625031 474.522614,192.582199
	C471.426849,196.689804 467.250824,197.555115 462.369812,196.018051
	C457.761383,194.566818 455.779022,191.088470 455.658173,186.648087
	C455.447296,178.900177 455.599457,171.142410 455.599457,163.187744
	C457.780670,163.187744 459.892975,163.187744 462.851318,163.187744
	C462.851318,169.458511 462.887207,175.693573 462.838104,181.927933
	C462.808044,185.742432 462.773590,189.538162 467.928833,189.954742
	C471.926361,190.277786 474.669434,187.226730 474.928070,182.027344
	C475.117767,178.212662 474.987610,174.382065 475.000000,170.070282
z"/>
<path fill="#FFFFFF" opacity="1.000000" stroke="none"
	d="
M361.026489,189.232361
	C362.555206,185.724426 364.380646,182.490540 364.769257,179.092346
	C365.350250,174.012054 364.920166,168.816147 364.920166,163.332718
	C367.176086,163.332718 369.245697,163.332718 371.779236,163.332718
	C371.779236,171.674164 371.779236,180.256073 371.779236,189.022690
	C375.638702,189.690384 378.013519,191.237610 376.384003,195.373550
	C367.852600,197.484589 365.654053,196.956589 364.592163,192.081879
	C360.910950,197.177826 356.066071,197.828903 350.921448,195.554260
	C345.957275,193.359390 345.113556,188.635330 345.050964,183.816437
	C344.962738,177.024979 345.028656,170.231506 345.028656,163.220001
	C347.502411,163.220001 349.596375,163.220001 352.415131,163.220001
	C352.415131,169.837662 352.277557,176.430893 352.455780,183.015564
	C352.617554,188.994034 354.694031,190.484268 361.026489,189.232361
z"/>
<path fill="#FFFFFF" opacity="1.000000" stroke="none"
	d="
M79.095352,193.085175
	C78.226952,194.367401 77.375626,195.882446 76.489449,195.903091
	C68.532326,196.088577 60.569073,196.011398 52.299187,196.011398
	C52.299187,193.880478 52.299187,191.981201 52.299187,189.602753
	C55.287273,189.602753 58.363476,189.602753 61.729156,189.602753
	C61.729156,179.077682 61.729156,169.025482 61.729156,158.638458
	C58.581635,158.638458 55.636482,158.638458 52.246883,158.638458
	C52.130161,156.428253 52.029400,154.520309 51.911732,152.292191
	C60.982311,152.292191 69.860039,152.292191 78.862579,152.292191
	C78.862579,154.345047 78.862579,156.256607 78.862579,158.487244
	C75.683571,158.487244 72.730789,158.487244 69.394775,158.487244
	C69.394775,168.811935 69.394775,178.821121 69.394775,189.337219
	C71.653709,189.337219 74.010147,188.972717 76.158676,189.483231
	C77.321075,189.759415 78.128624,191.529037 79.095352,193.085175
z"/>
<path fill="#FFFFFF" opacity="1.000000" stroke="none"
	d="
M657.172485,184.102356
	C652.793030,182.822968 648.792114,181.784088 644.872620,180.497162
	C641.212158,179.295288 638.959534,176.735809 639.076843,172.736328
	C639.197449,168.622849 640.801880,165.306778 645.043457,163.891785
	C651.831421,161.627289 658.670837,161.651642 665.855103,163.375778
	C665.527466,165.283981 665.227112,167.033173 664.817566,169.418274
	C660.177002,169.418274 655.543030,169.183060 650.959473,169.560028
	C649.564331,169.674774 648.307983,171.476807 646.988037,172.506088
	C648.233154,173.375763 649.366882,174.553696 650.746094,175.052444
	C653.844482,176.172867 657.070312,176.937836 660.234131,177.881149
	C664.681213,179.207047 666.700867,182.462326 666.560669,186.845139
	C666.404663,191.721069 663.715027,195.354065 658.849182,195.773788
	C652.345337,196.334763 645.756592,195.912506 638.767395,195.912506
	C638.937073,193.478775 639.080566,191.420517 639.183472,189.944077
	C644.298889,189.944077 648.915405,190.192505 653.492554,189.874725
	C658.138672,189.552185 659.160400,187.857239 657.172485,184.102356
z"/>
<path fill="#FFFFFF" opacity="1.000000" stroke="none"
	d="
M235.735138,172.909363
	C236.503693,166.507645 238.793854,163.749161 244.659256,163.072952
	C250.216446,162.432266 255.853516,162.484390 261.752777,162.218414
	C261.752777,164.826691 261.752777,166.592651 261.752777,168.544281
	C255.775192,170.577454 248.391495,166.287033 242.529510,172.956299
	C244.803284,173.938385 246.473312,174.803177 248.236176,175.388336
	C251.053452,176.323532 253.951767,177.012207 256.780823,177.914841
	C261.397736,179.387924 263.347626,182.620300 263.010162,187.425110
	C262.663300,192.363297 259.676880,195.369919 255.237762,195.776642
	C248.722122,196.373596 242.111176,195.930450 234.947113,195.930450
	C235.309860,193.480270 235.612579,191.435501 235.922562,189.341721
	C240.621674,189.559372 245.087494,190.110718 249.495392,189.810715
	C251.416016,189.680008 253.217773,187.802841 255.073517,186.718826
	C253.403885,185.476151 251.890915,183.861664 250.028336,183.076965
	C247.155777,181.866776 244.014343,181.312866 241.041183,180.318497
	C237.742371,179.215195 235.760910,176.985519 235.735138,172.909363
z"/>
<path fill="#FFFFFF" opacity="1.000000" stroke="none"
	d="
M126.960510,176.283569
	C124.472771,176.186737 122.082321,176.980865 122.174873,173.320206
	C122.256538,170.090561 124.041687,169.951340 126.416824,170.056671
	C128.358322,170.142776 130.306656,170.074203 132.172104,170.074203
	C134.908295,150.754730 140.570969,145.858795 155.421844,149.942169
	C155.213486,151.781357 154.998276,153.680939 154.789536,155.523346
	C140.970154,156.393311 139.440598,157.892761 140.250031,169.934631
	C144.280212,169.934631 148.360611,169.934631 152.826813,169.934631
	C152.929138,172.082367 153.011734,173.815750 153.119919,176.086502
	C148.782211,176.086502 144.715775,176.086502 140.235748,176.086502
	C140.235748,182.825943 140.235748,189.059067 140.235748,195.648819
	C137.637589,195.648819 135.449844,195.648819 132.725616,195.648819
	C132.725616,189.375046 132.725616,183.140091 132.725616,176.558609
	C130.623413,176.449844 129.016632,176.366714 126.960510,176.283569
z"/>
<path fill="#FFFFFF" opacity="1.000000" stroke="none"
	d="
M319.981445,165.488159
	C320.578949,166.177170 321.538208,166.836563 321.681213,166.691467
	C326.258209,162.047516 329.981415,161.025986 334.821228,163.208221
	C338.495270,164.864838 340.094421,168.738892 339.512787,174.894104
	C337.435150,174.894104 335.328583,174.894104 333.222046,174.894104
	C333.442902,174.638840 333.663788,174.383560 333.884674,174.128296
	C331.947113,172.388885 330.189026,169.485764 328.034454,169.153458
	C323.613373,168.471603 322.207062,172.501099 321.646667,175.936234
	C320.932556,180.313644 320.990662,184.817047 320.686035,189.748917
	C323.481842,189.890656 325.882477,190.012344 328.598633,190.150040
	C328.598633,191.983505 328.598633,193.702805 328.598633,195.726807
	C321.325073,195.726807 314.078400,195.726807 306.467773,195.726807
	C306.467773,194.021912 306.467773,192.308090 306.467773,190.250900
	C308.489563,190.107407 310.582306,189.958862 313.016815,189.786057
	C313.016815,183.040970 313.016815,176.331940 313.016815,169.294403
	C311.497498,169.138565 309.900604,168.974777 307.755493,168.754745
	C307.620789,167.113113 307.479584,165.392197 307.282562,162.991150
	C311.054382,162.991150 314.491486,162.873093 317.907928,163.086121
	C318.631531,163.131241 319.279694,164.386078 319.981445,165.488159
z"/>
<path fill="#FFFFFF" opacity="1.000000" stroke="none"
	d="
M92.932533,196.002197
	C90.298576,196.188370 88.719009,196.131653 88.778450,193.047287
	C88.967133,183.256332 88.848244,173.459442 88.848244,162.590027
	C91.682602,163.217804 94.065475,163.745590 97.559616,164.519501
	C100.336380,161.539932 105.255913,161.262970 110.249306,163.573715
	C115.168686,165.850235 115.933006,170.561752 115.973671,175.380310
	C116.029663,182.016602 115.987686,188.653702 115.987686,195.645996
	C113.605881,195.645996 111.414459,195.645996 108.751320,195.645996
	C108.751320,189.484344 108.839867,183.377869 108.719238,177.275528
	C108.642670,173.401871 108.596207,169.228271 103.106125,169.035538
	C99.081505,168.894257 96.300194,171.963409 96.079704,177.069397
	C95.857536,182.214493 96.171234,187.384750 95.883675,192.523483
	C95.816414,193.725311 94.270813,194.844421 92.932533,196.002197
z"/>
<path fill="#FFFFFF" opacity="1.000000" stroke="none"
	d="
M293.909180,169.004028
	C290.610382,169.004028 287.790314,169.004028 284.392181,169.004028
	C284.392181,173.786194 284.113525,178.394943 284.464081,182.955307
	C284.884216,188.420670 286.909576,189.941696 292.624695,189.995026
	C294.764679,190.014984 296.904999,189.998260 299.703766,189.998260
	C299.836060,191.679520 299.982697,193.543152 300.166229,195.875610
	C297.514191,196.218079 295.107544,196.739487 292.688477,196.805481
	C281.015564,197.124008 277.034149,193.203323 277.012726,181.560928
	C277.005402,177.588394 277.011566,173.615829 277.011566,169.237564
	C274.420319,169.101349 272.019135,168.975128 269.215057,168.827713
	C269.134125,167.003342 269.057312,165.271530 268.966095,163.215317
	C271.652344,163.082153 274.070709,162.962280 276.958130,162.819153
	C276.958130,159.651016 276.958130,156.574707 276.958130,153.275299
	C279.507660,153.275299 281.582642,153.275299 284.200317,153.275299
	C284.200317,156.401138 284.200317,159.457184 284.200317,162.902344
	C289.307007,162.902344 293.895264,162.902344 298.737122,162.902344
	C298.737122,165.026779 298.737122,166.757294 298.737122,168.791885
	C297.288361,168.862549 295.838165,168.933273 293.909180,169.004028
z"/>
<path fill="#FFFFFF" opacity="1.000000" stroke="none"
	d="
M429.977966,195.328888
	C425.500549,193.189285 424.019836,189.696030 423.996552,185.390701
	C423.967865,180.093414 423.989716,174.795837 423.989716,169.052414
	C421.156036,169.052414 418.746552,169.052414 416.062317,169.052414
	C416.062317,166.873306 416.062317,165.145752 416.062317,163.004730
	C418.614410,163.004730 421.040466,163.004730 423.767395,163.004730
	C423.767395,159.656982 423.767395,156.709702 423.767395,153.394958
	C426.132416,153.394958 428.207703,153.394958 430.738403,153.394958
	C430.738403,156.197205 430.738403,159.276047 430.738403,162.831696
	C435.908295,162.831696 440.649384,162.831696 445.665588,162.831696
	C445.665588,165.019516 445.665588,166.743225 445.665588,168.786041
	C440.996704,168.786041 436.375977,168.786041 431.342896,168.786041
	C431.342896,174.311142 431.068909,179.566833 431.439636,184.776642
	C431.684967,188.224670 434.325867,189.856369 437.718567,189.968323
	C440.356232,190.055359 442.999054,189.985718 446.258789,189.985718
	C446.526001,191.624329 446.828888,193.481857 447.382538,196.877029
	C441.237274,196.394943 435.774811,195.966400 429.977966,195.328888
z"/>
<path fill="#FFFFFF" opacity="1.000000" stroke="none"
	d="
M515.347412,162.580841
	C521.633484,164.439087 523.050293,166.748245 522.899231,174.778381
	C520.837708,174.778381 518.760742,174.778381 516.683838,174.778381
	C516.904968,174.542068 517.126099,174.305771 517.347229,174.069458
	C515.225403,172.348724 513.231201,169.406998 510.954376,169.168961
	C506.611969,168.714966 505.384125,172.787064 504.851959,176.265106
	C504.183197,180.636108 504.088379,185.094910 503.708954,189.992706
	C506.790070,189.992706 509.198853,189.992706 511.799316,189.992706
	C511.799316,192.045151 511.799316,193.663544 511.799316,195.644470
	C504.660675,195.644470 497.429840,195.644470 489.835571,195.644470
	C489.835571,194.034866 489.835571,192.296280 489.835571,190.207703
	C491.948212,190.090012 494.052094,189.972824 496.513367,189.835709
	C496.513367,183.107330 496.513367,176.389206 496.513367,169.265503
	C494.903961,169.117584 493.170288,168.958237 491.167297,168.774124
	C491.167297,166.927353 491.167297,165.190231 491.167297,163.221512
	C494.833954,163.221512 498.457672,163.221512 502.513000,163.221512
	C502.842041,164.426376 503.237671,165.874985 503.837189,168.070282
	C506.747314,163.588898 510.209045,161.519531 515.347412,162.580841
z"/>
<path fill="#FFFFFF" opacity="1.000000" stroke="none"
	d="
M177.489716,170.372681
	C175.724655,176.780701 174.259567,182.926071 172.647980,189.685974
	C176.632828,189.897995 179.041687,190.026154 181.721451,190.168747
	C181.721451,192.017731 181.721451,193.750702 181.721451,195.746475
	C174.596863,195.746475 167.492020,195.746475 159.784088,195.746475
	C159.674881,194.174194 159.556107,192.464096 159.405777,190.299835
	C161.924545,190.112427 164.151978,189.946701 166.620789,189.763000
	C166.620789,182.913773 166.620789,176.175446 166.620789,169.218140
	C164.827698,169.091553 163.211731,168.977463 161.114761,168.829422
	C161.026550,167.090973 160.937637,165.338577 160.833359,163.283569
	C164.804428,163.283569 168.567123,163.283569 172.735077,163.283569
	C172.946198,164.487244 173.183334,165.839188 173.602097,168.226700
	C177.581711,162.172470 182.579742,160.927261 188.103424,163.343048
	C192.795975,165.395325 193.193604,169.892868 192.924393,174.776443
	C190.847031,174.776443 188.776230,174.776443 186.609970,174.776443
	C183.989227,168.126663 183.317352,167.760544 177.489716,170.372681
z"/>
<path fill="#FFFFFF" opacity="1.000000" stroke="none"
	d="
M401.285767,162.519012
	C405.921631,163.401337 409.635101,164.916779 411.411804,169.700989
	C409.752655,170.988495 408.094360,172.275345 406.513550,173.502075
	C400.044159,168.429749 396.579803,167.822678 392.540527,170.865097
	C389.021759,173.515457 387.829163,179.315063 389.832642,184.033371
	C392.234375,189.689560 396.778656,190.992584 408.745758,189.219299
	C409.159851,191.198853 409.582245,193.217972 410.085480,195.623611
	C400.824768,196.958496 391.814728,199.093597 384.722992,191.134323
	C380.373291,186.252579 379.756134,176.039154 383.283936,169.894485
	C387.202057,163.069992 393.628113,161.648041 401.285767,162.519012
z"/>
<path fill="#31363B" opacity="1.000000" stroke="none"
	d="
M792.290161,172.583664
	C794.311401,168.931427 797.559204,167.857132 800.481079,169.314270
	C802.565796,170.353943 804.108032,173.188324 805.070923,175.555878
	C805.899475,177.593109 805.652832,180.100143 805.727478,182.404465
	C805.866760,186.699265 804.635010,189.887909 799.528992,190.098709
	C794.606140,190.301926 791.482544,188.135834 791.158813,183.179718
	C790.938416,179.805817 791.759949,176.363876 792.290161,172.583664
z"/>
<path fill="#34393E" opacity="1.000000" stroke="none"
	d="
M837.685364,169.021301
	C840.299194,171.110306 842.515076,173.177521 844.731018,175.244736
	C844.403931,175.712082 844.076782,176.179443 843.749695,176.646790
	C838.900696,176.646790 834.051697,176.646790 829.200012,176.646790
	C829.579468,171.298218 831.500610,169.466980 837.685364,169.021301
z"/>
<path fill="#33383C" opacity="1.000000" stroke="none"
	d="
M546.107422,169.575592
	C547.919067,171.742035 549.399048,173.681519 551.677979,176.667877
	C545.095764,176.667877 540.252808,176.667877 535.398193,176.667877
	C536.884705,169.973251 538.888000,168.563385 546.107422,169.575592
z"/>
<path fill="#353A3F" opacity="1.000000" stroke="none"
	d="
M215.504730,182.146820
	C218.658478,185.902878 216.194946,188.643097 213.371063,189.454102
	C210.648895,190.235901 207.333420,188.951889 204.278610,188.575455
	C204.952271,186.672791 205.155365,183.612717 206.397293,183.107803
	C209.002838,182.048508 212.154663,182.332901 215.504730,182.146820
z"/>
<path fill="#373C41" opacity="1.000000" stroke="none"
	d="
M615.889404,181.983734
	C617.746460,182.145050 619.171997,182.305054 620.576843,182.462753
	C620.097046,188.425476 616.622314,191.579437 611.622437,190.382919
	C609.901306,189.971039 608.557983,187.980423 607.042053,186.711029
	C608.372681,185.241760 609.494934,183.446274 611.106445,182.416550
	C612.202087,181.716492 613.983276,182.089386 615.889404,181.983734
z"/>
<path fill="#31363B" opacity="1.000000" stroke="none"
	d="
M768.937378,174.761871
	C768.969238,178.297119 769.720520,181.734146 768.631958,184.427719
	C767.705322,186.720932 764.783325,189.362061 762.513489,189.594208
	C760.686951,189.781006 757.397949,186.936157 756.755432,184.827698
	C755.756104,181.548416 755.728882,177.541321 756.689331,174.251373
	C757.307739,172.133301 760.549194,169.265808 762.404602,169.411575
	C764.671143,169.589645 766.717407,172.571747 768.937378,174.761871
z"/>
</svg>
